<?xml version="1.0" encoding="UTF-8"?>
<svg xmlns="http://www.w3.org/2000/svg" xmlns:xlink="http://www.w3.org/1999/xlink" width="50px" height="39px" viewBox="0 0 50 39" version="1.1">
<g id="surface1">
<path style=" stroke:none;fill-rule:nonzero;fill:rgb(50%,50%,50%);fill-opacity:1;" d="M 34.953125 37.78125 L 34.964844 37.78125 C 33.519531 37.78125 32.347656 37.203125 32.347656 36.496094 C 32.347656 36.011719 32.894531 35.589844 33.699219 35.367188 L 42.304688 32.921875 L 42.304688 6.082031 L 34.964844 3.992188 L 17.667969 8.914062 L 17.667969 28.601562 L 22.394531 27.253906 L 22.394531 11.28125 C 22.394531 10.574219 22.941406 10.105469 24.191406 9.75 L 33.640625 7.058594 C 34.042969 6.945312 34.496094 6.886719 34.953125 6.886719 C 36.367188 6.886719 37.566406 7.457031 37.566406 8.171875 L 37.578125 30.550781 C 37.578125 31.257812 37.027344 31.726562 35.777344 32.078125 L 16.847656 37.46875 C 16.222656 37.644531 15.636719 37.734375 15.046875 37.734375 C 14.460938 37.734375 13.875 37.644531 13.25 37.46875 L 4.273438 34.914062 C 3.027344 34.558594 2.476562 34.089844 2.476562 33.382812 L 2.476562 5.617188 C 2.476562 4.90625 3.027344 4.4375 4.273438 4.085938 L 13.699219 1.402344 C 14.09375 1.285156 14.554688 1.21875 15.046875 1.21875 C 16.492188 1.21875 17.660156 1.796875 17.660156 2.503906 C 17.660156 2.988281 17.117188 3.410156 16.3125 3.632812 L 7.707031 6.078125 L 7.707031 32.917969 L 15.046875 35.007812 L 32.34375 30.085938 L 32.34375 10.398438 L 27.617188 11.746094 L 27.617188 27.71875 C 27.617188 28.425781 27.066406 28.894531 25.820312 29.25 L 16.34375 31.941406 C 15.945312 32.054688 15.492188 32.117188 15.03125 32.117188 C 13.617188 32.117188 12.410156 31.539062 12.410156 30.824219 L 12.425781 8.449219 C 12.425781 7.738281 12.972656 7.269531 14.222656 6.914062 L 33.152344 1.53125 C 33.777344 1.351562 34.367188 1.265625 34.953125 1.265625 C 35.539062 1.265625 36.128906 1.351562 36.753906 1.53125 L 45.726562 4.082031 C 46.976562 4.4375 47.523438 4.90625 47.523438 5.617188 L 47.523438 33.382812 C 47.523438 34.089844 46.976562 34.558594 45.726562 34.914062 L 36.300781 37.597656 C 35.90625 37.714844 35.449219 37.78125 34.957031 37.78125 Z M 34.953125 37.78125 "/>
</g>
</svg>
